name Walk2.mot
datacolumns 19
datarows 12
range 3.09500000 3.10600000
endheader

                time	   L_ground_force_vx	   L_ground_force_vy	   L_ground_force_vz	   L_ground_force_px	   L_ground_force_py	   L_ground_force_pz	   R_ground_force_vx	   R_ground_force_vy	   R_ground_force_vz	   R_ground_force_px	   R_ground_force_py	   R_ground_force_pz	   L_ground_torque_x	   L_ground_torque_y	   L_ground_torque_z	   R_ground_torque_x	   R_ground_torque_y	   R_ground_torque_z	
          3.09500000	          0.00000000	          0.00000000	          0.00000000	          0.00000000	          0.00000000	          0.00000000	          0.00000000	          0.00000000	          0.00000000	          0.00000000	          0.00000000	          0.00000000	          0.00000000	          0.00000000	          0.00000000	          0.00000000	          0.00000000	          0.00000000	
          3.09600000	          0.00000000	          0.00000000	          0.00000000	          0.00000000	          0.00000000	          0.00000000	          0.00000000	          0.00000000	          0.00000000	          0.00000000	          0.00000000	          0.00000000	          0.00000000	          0.00000000	          0.00000000	          0.00000000	          0.00000000	          0.00000000	
          3.09700000	          0.00000000	          0.00000000	          0.00000000	          0.00000000	          0.00000000	          0.00000000	          4.07085013	          9.03443678	          0.54049282	         -0.47812199	          0.00000000	          0.00349492	          0.00000000	          0.00000000	          0.00000000	          0.00000000	         -0.06046471	          0.00000000	
          3.09800000	          0.00000000	          0.00000000	          0.00000000	          0.00000000	          0.00000000	          0.00000000	          6.77395554	         16.19241587	          0.85645333	         -0.47428556	          0.00000000	          0.00398329	          0.00000000	          0.00000000	          0.00000000	          0.00000000	         -0.09704700	          0.00000000	
          3.09900000	          0.00000000	          0.00000000	          0.00000000	          0.00000000	          0.00000000	          0.00000000	          9.76441885	         25.28374251	          1.16316481	         -0.47035983	          0.00000000	          0.00432413	          0.00000000	          0.00000000	          0.00000000	          0.00000000	         -0.13214008	          0.00000000	
          3.10000000	          0.00000000	          0.00000000	          0.00000000	          0.00000000	          0.00000000	          0.00000000	         12.86061700	         36.49218547	          1.45184026	         -0.46632776	          0.00000000	          0.00453567	          0.00000000	          0.00000000	          0.00000000	          0.00000000	         -0.16067771	          0.00000000	
          3.10100000	          0.00000000	          0.00000000	          0.00000000	          0.00000000	          0.00000000	          0.00000000	         16.01390999	         50.23409002	          1.76231899	         -0.46256850	          0.00000000	          0.00464730	          0.00000000	          0.00000000	          0.00000000	          0.00000000	         -0.18185500	          0.00000000	
          3.10200000	          0.00000000	          0.00000000	          0.00000000	          0.00000000	          0.00000000	          0.00000000	         19.29368217	         66.90793527	          2.15618772	         -0.45942975	          0.00000000	          0.00467865	          0.00000000	          0.00000000	          0.00000000	          0.00000000	         -0.19851230	          0.00000000	
          3.10300000	          0.00000000	          0.00000000	          0.00000000	          0.00000000	          0.00000000	          0.00000000	         22.80111662	         86.51146072	          2.66197466	         -0.45696679	          0.00000000	          0.00474649	          0.00000000	          0.00000000	          0.00000000	          0.00000000	         -0.21522374	          0.00000000	
          3.10400000	          0.00000000	          0.00000000	          0.00000000	          0.00000000	          0.00000000	          0.00000000	         26.56148586	        108.36877055	          3.24622717	         -0.45506260	          0.00000000	          0.00503151	          0.00000000	          0.00000000	          0.00000000	          0.00000000	         -0.23678841	          0.00000000	
          3.10500000	          0.00000000	          0.00000000	          0.00000000	          0.00000000	          0.00000000	          0.00000000	         30.43648076	        131.07815488	          3.81965348	         -0.45362894	          0.00000000	          0.00553619	          0.00000000	          0.00000000	          0.00000000	          0.00000000	         -0.26304365	          0.00000000	
          3.10600000	          0.00000000	          0.00000000	          0.00000000	          0.00000000	          0.00000000	          0.00000000	         34.12921431	        152.77218851	          4.25812146	         -0.45263940	          0.00000000	          0.00603888	          0.00000000	          0.00000000	          0.00000000	          0.00000000	         -0.28652416	          0.00000000	
